<svg width="29" height="29" viewBox="0 0 29 29" fill="none" xmlns="http://www.w3.org/2000/svg">
<path d="M11.524 19.4716C13.6318 19.4716 15.6533 18.6343 17.1438 17.1438C18.6343 15.6533 19.4716 13.6318 19.4716 11.524C19.4716 9.41618 18.6343 7.39468 17.1438 5.90421C15.6533 4.41375 13.6318 3.57642 11.524 3.57642C9.41618 3.57642 7.39468 4.41375 5.90421 5.90421C4.41375 7.39468 3.57642 9.41618 3.57642 11.524C3.57642 13.6318 4.41375 15.6533 5.90421 17.1438C7.39468 18.6343 9.41618 19.4716 11.524 19.4716Z" fill="black" fill-opacity="0.16"/>
<path d="M21.4585 21.4585L17.4847 17.4847M19.4716 11.524C19.4716 13.6318 18.6343 15.6533 17.1438 17.1438C15.6533 18.6343 13.6318 19.4716 11.524 19.4716C9.41618 19.4716 7.39467 18.6343 5.90421 17.1438C4.41375 15.6533 3.57642 13.6318 3.57642 11.524C3.57642 9.41618 4.41375 7.39467 5.90421 5.90421C7.39467 4.41375 9.41618 3.57642 11.524 3.57642C13.6318 3.57642 15.6533 4.41375 17.1438 5.90421C18.6343 7.39467 19.4716 9.41618 19.4716 11.524Z" stroke="black" stroke-opacity="0.8" stroke-width="1.5" stroke-miterlimit="10" stroke-linecap="round" stroke-linejoin="round"/>
</svg>
